<svg xmlns="http://www.w3.org/2000/svg" viewBox="0 0 316.4 42.3">
	<path fill="#1a171b" d="M30.4 40.4c-1.8 1-5.7 1.9-10.6 1.9C8.5 42.3 0 35.2 0 21.9 0 9.3 8.5.8 21 .8c4.9 0 8.2 1.1 9.5 1.8l-1.3 4.2c-1.9-1-4.7-1.7-8.1-1.7-9.4 0-15.7 6-15.7 16.6 0 9.9 5.7 16.2 15.4 16.2 3.2 0 6.4-.7 8.5-1.7l1.1 4.2zM36.8 0H42v42.3h-5.2V0zm17 28.2c.1 7.1 4.6 10 9.9 10 3.8 0 6.1-.7 8-1.5l1 3.8c-1.8.8-5.1 1.8-9.7 1.8-8.9 0-14.2-5.9-14.2-14.6s5.1-15.5 13.5-15.5c9.5 0 11.9 8.2 11.9 13.5 0 1.1-.1 1.8-.2 2.4H53.8zm15.4-3.8c.1-3.3-1.4-8.5-7.3-8.5-5.4 0-7.6 4.8-8 8.5h15.3zm40.3-1.9c0-3.4-.1-6.3-.2-9h4.6l.2 5.7h.2c1.3-3.9 4.5-6.3 8-6.3.5 0 1 .1 1.4.1v4.9c-.5-.1-1.1-.1-1.8-.1-3.7 0-6.3 2.7-7 6.7-.1.7-.2 1.6-.2 2.4v15.4h-5.2V22.5zM77.7 42.3l11-28.9h5L105 42.3h-5.5L94 26.2c-1-2.7-1.8-5.1-2.4-7.5h-.2c-.6 2.4-1.4 4.8-2.3 7.5l-5.7 16.2h-5.7z"/>
	<path fill="#1a171b" d="M172.6 40.4c-1.8 1-5.7 1.9-10.6 1.9-11.3 0-19.8-7.2-19.8-20.4 0-12.6 8.5-21.1 21-21.1 4.9 0 8.2 1.1 9.5 1.8l-1.3 4.2c-1.9-1-4.7-1.7-8.1-1.7-9.4 0-15.7 6-15.7 16.6 0 9.9 5.7 16.2 15.4 16.2 3.2 0 6.4-.7 8.5-1.7l1.1 4.2zm35.7-19.1c0-3-.1-5.4-.2-7.8h4.7l.3 4.8h.1c1.4-2.7 4.8-5.4 9.5-5.4 4 0 10.2 2.4 10.2 12.3v17.2h-5.2V25.7c0-4.7-1.7-8.5-6.7-8.5-3.4 0-6.1 2.4-7 5.4-.2.7-.4 1.6-.4 2.4v17.4h-5.2V21.3zm34.4-7.8l5.7 16.2c1 2.7 1.7 5.1 2.3 7.5h.2c.7-2.4 1.5-4.8 2.4-7.5l5.6-16.2h5.5L253 42.3h-5l-11-28.9h5.7zm20.9 28.8l11-28.9h5L291 42.3h-5.5l-5.6-16.2c-1-2.7-1.8-5.1-2.4-7.5h-.2c-.6 2.4-1.4 4.8-2.3 7.5l-5.7 16.2h-5.7zm-86.5 0l11-28.9h5l11.3 28.9h-5.5l-5.6-16.2c-1-2.7-1.8-5.1-2.4-7.5h-.2c-.6 2.4-1.4 4.8-2.3 7.5l-5.7 16.2h-5.6zm120-5.9c1.6 1 4.4 2 7 2 3.8 0 5.5-1.8 5.5-4.3s-1.5-3.8-5.3-5.2c-5.2-1.9-7.7-4.7-7.7-8.2 0-4.7 3.8-8.5 10-8.5 2.9 0 5.5.8 7 1.8l-1.3 3.8c-1.1-.7-3.2-1.7-5.9-1.7-3.1 0-4.8 1.8-4.8 3.9 0 2.4 1.7 3.5 5.4 4.9 4.9 1.8 7.6 4.4 7.6 8.6 0 5.1-4 8.7-10.7 8.7-3.2 0-6.1-.8-8.1-2l1.3-3.8z"/>
</svg>
